# xmcd
#
# Track frame offsets: 
#        150
#        15063
#        32948
#        54549
#        71819
#        91437
#        113398
#        132959
#        150720
#        169175
#
# Disc length: 2568 seconds
#
# Revision: 0
# Processed by: cddbd v1.5.2PL0 Copyright (c) Steve Scherf et al.
# Submitted via: ExactAudioCopyFreeDBPlugin 1.0
#
DISCID=780a060a
DTITLE=Solpie - 十四岁的夏天
DYEAR=2011
DGENRE=Pop
TTITLE0=Solpie feat.初音ミク&GUMI - 五月光
TTITLE1=Solpie feat.初音ミク&GUMI - 九岁半
TTITLE2=Solpie feat.初音ミク - 漓江烟雨
TTITLE3=Solpie feat.初音ミク - 毕业的夏天
TTITLE4=Solpie feat.初音ミク&GUMI - 消失的辐射
TTITLE5=Solpie feat.神威がくぽ - 尧山风神
TTITLE6=Solpie feat.初音ミク - 分不清的雨点
TTITLE7=Solpie feat.初音ミク&GUMI - 水瓶星
TTITLE8=Solpie feat.初音ミク - 白木莲
TTITLE9=Solpie feat.初音ミク - 如果你还在
EXTD=
EXTT0=
EXTT1=
EXTT2=
EXTT3=
EXTT4=
EXTT5=
EXTT6=
EXTT7=
EXTT8=
EXTT9=
PLAYORDER=
